<svg width="140" height="119" viewBox="0 0 140 119" fill="none" xmlns="http://www.w3.org/2000/svg">
<path d="M140 0H46.3526C20.7268 0 0 20.5428 0 45.8973V102.529V119L21.1036 102.529H93.6474C119.273 102.529 140 81.986 140 56.6314V0Z" fill="#0F4CEA"/>
<path d="M47.4922 20.918C32.9835 20.918 21.1127 32.5774 21.1127 47.0128V81.806H31.6645V67.9257C35.9983 71.257 41.651 73.2928 47.4922 73.2928C62.0009 73.2928 73.8717 61.6334 73.8717 47.1979C73.6833 32.5774 62.0009 20.918 47.4922 20.918ZM47.4922 62.7438C38.8246 62.7438 31.6645 55.7111 31.6645 47.0128C31.6645 38.3145 38.8246 31.2819 47.4922 31.2819C56.1598 31.2819 63.3199 38.3145 63.3199 47.0128C63.3199 55.7111 56.1598 62.7438 47.4922 62.7438Z" fill="white"/>
<path d="M101.195 43.1244V39.6081V31.8351C101.195 30.3546 101.761 29.6143 104.776 29.6143H108.544V20.916H100.065C94.4122 20.916 91.0205 24.6174 91.0205 31.0949V39.7931V42.1991C91.0205 47.0109 88.571 47.0109 87.8173 47.0109H84.0488V56.2644H87.8173C88.571 56.2644 91.0205 56.2644 91.0205 60.8911V71.6252C91.0205 77.9176 94.4122 81.804 100.065 81.804H108.544V72.7356H104.776C101.761 72.7356 101.195 71.8102 101.195 70.5148V59.4106C101.195 57.93 101.195 53.6734 96.8617 51.0824C100.63 49.0466 101.195 44.79 101.195 43.1244Z" fill="white"/>
</svg>
